# xmcd
#
# Track frame offsets:
#	150
#	15922
#	35397
#	54763
#	70685
#	81575
#	97023
#	110330
#	128858
#	146257
#	160681
#	172227
#	189947
#	205099
#	218745
#	236113
#	250847
#	262254
#	273132
#	283129
#	298387
#	307779
#	333498
#
# Disc length: 4653 seconds
#
# Revision: 1
# Processed by: cddbd v1.5.2PL0 Copyright (c) Steve Scherf et al.
# Submitted via: audiograbber 1.83.01
#
DISCID=50122b17
DTITLE=Country Hotdisc  - Country Hotdisc 141
DYEAR=2010
DGENRE=Country
TTITLE0=New Fool At An Old Game  - Michelle Wright
TTITLE1=Just One Kiss  - Raintown
TTITLE2=Whisper Me Slow  - Cheley Tackett
TTITLE3=The Arms Of A Good Woman  - Suzanne Edwards
TTITLE4=Www.she Stole My Heart  - Lawrence John Project
TTITLE5=The Ballad Of Lucy Jordan  - Martha Murray
TTITLE6=It´s To Late Now - Missori Mile
TTITLE7=48 Now To Easy Day - Mason
TTITLE8=I´d Do It For You  - Billy Yates With Nicole Broussard
TTITLE9=English Country Girl  - Charlotte Howard
TTITLE10=My Baby Loves Me  - Kel Anne Brandt
TTITLE11=Now I Belive  - Mark Wayne Glasmire
TTITLE12=Simple Things  - David Wood
TTITLE13=Expert At Everything  - Mexican Joe Walker
TTITLE14=Satin Sheets  - The Bellamy Brothers
TTITLE15=Bar Stole Cowboy - Rockin Horse
TTITLE16=Crisis  - Albert Huizeling
TTITLE17=Mystery Train  - Elvis Presley
TTITLE18=You´re A Heartbreaker - Elvis Presley
TTITLE19=That´s When Your Heartaches Begin  - Elvis Presley
TTITLE20=Dolly Parton Hits  - Bobby Branddock
TTITLE21=The Hits Medley  - Waylon Jennings
TTITLE22=I´ll Take Care Of You  - Ronnie Milsap
EXTD=
EXTT0=
EXTT1=
EXTT2=
EXTT3=
EXTT4=
EXTT5=
EXTT6=
EXTT7=
EXTT8=
EXTT9=
EXTT10=
EXTT11=
EXTT12=
EXTT13=
EXTT14=
EXTT15=
EXTT16=
EXTT17=
EXTT18=
EXTT19=
EXTT20=
EXTT21=
EXTT22=
PLAYORDER=
